<mxfile host="app.diagrams.net" modified="2020-12-13T15:50:10.051Z" agent="5.0 (Windows NT 10.0; Win64; x64) AppleWebKit/537.36 (KHTML, like Gecko) Chrome/87.0.4280.88 Safari/537.36" etag="2ixYffvrit1leZ3v98BO" version="14.0.1" type="github">
  <diagram name="Page-1" id="e7e014a7-5840-1c2e-5031-d8a46d1fe8dd">
    <mxGraphModel dx="270" dy="577" grid="1" gridSize="10" guides="1" tooltips="1" connect="1" arrows="1" fold="1" page="1" pageScale="1" pageWidth="1169" pageHeight="826" background="#ffffff" math="0" shadow="0">
      <root>
        <mxCell id="0" />
        <mxCell id="1" parent="0" />
        <mxCell id="ZcHIxf6KLxBuzkeYOQxY-43" style="edgeStyle=orthogonalEdgeStyle;rounded=0;orthogonalLoop=1;jettySize=auto;html=1;exitX=0.5;exitY=1;exitDx=0;exitDy=0;" edge="1" parent="1" source="ZcHIxf6KLxBuzkeYOQxY-41">
          <mxGeometry relative="1" as="geometry">
            <mxPoint x="175" y="170" as="targetPoint" />
          </mxGeometry>
        </mxCell>
        <mxCell id="ZcHIxf6KLxBuzkeYOQxY-41" value="" style="ellipse;fillColor=#000000;strokeColor=none;" vertex="1" parent="1">
          <mxGeometry x="160" y="110" width="30" height="30" as="geometry" />
        </mxCell>
        <mxCell id="ZcHIxf6KLxBuzkeYOQxY-48" style="edgeStyle=orthogonalEdgeStyle;rounded=0;orthogonalLoop=1;jettySize=auto;html=1;exitX=0.5;exitY=1;exitDx=0;exitDy=0;" edge="1" parent="1">
          <mxGeometry relative="1" as="geometry">
            <mxPoint x="175" y="270" as="targetPoint" />
            <mxPoint x="175" y="230" as="sourcePoint" />
          </mxGeometry>
        </mxCell>
        <mxCell id="ZcHIxf6KLxBuzkeYOQxY-50" value="&lt;b&gt;&lt;font style=&quot;font-size: 13px&quot;&gt;Ввод предложения&lt;/font&gt;&lt;/b&gt;" style="html=1;dashed=0;whitespace=wrap;shape=mxgraph.dfd.start" vertex="1" parent="1">
          <mxGeometry x="110" y="170" width="130" height="70" as="geometry" />
        </mxCell>
        <mxCell id="ZcHIxf6KLxBuzkeYOQxY-52" style="edgeStyle=orthogonalEdgeStyle;rounded=0;orthogonalLoop=1;jettySize=auto;html=1;exitX=0.5;exitY=0.5;exitDx=0;exitDy=20;exitPerimeter=0;" edge="1" parent="1" source="ZcHIxf6KLxBuzkeYOQxY-51">
          <mxGeometry relative="1" as="geometry">
            <mxPoint x="175" y="340" as="targetPoint" />
          </mxGeometry>
        </mxCell>
        <mxCell id="ZcHIxf6KLxBuzkeYOQxY-51" value="r=s.rerlace(&#39; &#39;,&#39;_&#39;)&amp;nbsp;" style="html=1;dashed=0;whitespace=wrap;shape=mxgraph.dfd.start" vertex="1" parent="1">
          <mxGeometry x="94.38" y="270" width="161.25" height="40" as="geometry" />
        </mxCell>
        <mxCell id="ZcHIxf6KLxBuzkeYOQxY-55" style="edgeStyle=orthogonalEdgeStyle;rounded=0;orthogonalLoop=1;jettySize=auto;html=1;exitX=0.5;exitY=0.5;exitDx=0;exitDy=25;exitPerimeter=0;entryX=0.5;entryY=0;entryDx=0;entryDy=0;" edge="1" parent="1" source="ZcHIxf6KLxBuzkeYOQxY-53" target="ZcHIxf6KLxBuzkeYOQxY-54">
          <mxGeometry relative="1" as="geometry" />
        </mxCell>
        <mxCell id="ZcHIxf6KLxBuzkeYOQxY-53" value="&lt;b style=&quot;font-size: 13px&quot;&gt;Выводится предложения &lt;br&gt;после замены&lt;/b&gt;" style="html=1;dashed=0;whitespace=wrap;shape=mxgraph.dfd.start" vertex="1" parent="1">
          <mxGeometry x="82.82" y="340" width="184.37" height="50" as="geometry" />
        </mxCell>
        <mxCell id="ZcHIxf6KLxBuzkeYOQxY-54" value="" style="ellipse;html=1;shape=endState;fillColor=#000000;strokeColor=#000000;" vertex="1" parent="1">
          <mxGeometry x="160" y="413" width="30" height="30" as="geometry" />
        </mxCell>
      </root>
    </mxGraphModel>
  </diagram>
</mxfile>
